<?xml version="1.0" encoding="utf-8"?>
<!-- Generator: Adobe Illustrator 19.2.0, SVG Export Plug-In . SVG Version: 6.00 Build 0)  -->
<svg version="1.1" id="Layer_1" xmlns="http://www.w3.org/2000/svg" xmlns:xlink="http://www.w3.org/1999/xlink" x="0px" y="0px"
	 viewBox="0 0 216 240.7783" enable-background="new 0 0 216 240.7783" xml:space="preserve">
<g>
	<path d="M0,0v142h27.6833c23.2184,0,38.9576,15.1772,38.9576,37.0558C66.641,200.9345,50.9018,216,27.6833,216h70.7731l-29.2457-74
		h14.8463l22.5485,60.2781L129.1537,142H144l-29.2457,74H216V0H0z"/>
	<path d="M53.2457,179.0558C53.2457,164.656,44.3159,153,27.6833,153H13v52h14.6833C43.8694,205,53.2457,193.1205,53.2457,179.0558z
		"/>
</g>
<g>
	<path d="M0.0309,225.8859h5.0674c4.429,0,7.3673,3.1142,7.3673,7.3253c0,4.2332-2.9383,7.3038-7.3673,7.3038H0.0309V225.8859z
		 M5.0983,238.5848c3.2793,0,5.1743-2.4123,5.1743-5.3736c0-3.0048-1.8316-5.3956-5.1743-5.3956H2.1599v10.7692H5.0983z"/>
	<path d="M26.4574,237.4883h-6.792l-1.1497,3.0267h-2.4275l5.6422-14.6292h2.6619l5.6422,14.6292h-2.4275L26.4574,237.4883z
		 M20.2828,235.5361H25.84l-2.7894-7.4133L20.2828,235.5361z"/>
	<path d="M37.1489,229.4606v11.0544h-2.129v-14.6292h2.193l7.7293,10.7907v-10.7907h2.129v14.6292h-2.0655L37.1489,229.4606z"/>
	<path d="M60.8095,225.8859h2.4275l4.535,12.2384l4.5565-12.2384h2.4275l-5.6422,14.6292h-2.6619L60.8095,225.8859z"/>
	<path d="M79.7412,225.8859h2.129v14.6292h-2.129V225.8859z"/>
	<path d="M88.6637,236.7645c0.9583,1.0965,2.4914,2.0616,4.4715,2.0616c2.2995,0,3.1088-1.2064,3.1088-2.259
		c0-1.5356-1.6181-1.9742-3.4282-2.4568c-2.278-0.6139-4.9184-1.2938-4.9184-4.2766c0-2.4128,2.0655-4.1677,5.0249-4.1677
		c2.193,0,3.9176,0.7238,5.1738,2.0401l-1.2347,1.623c-1.0858-1.1844-2.5764-1.711-4.1096-1.711
		c-1.5756,0-2.6614,0.8337-2.6614,2.0616c0,1.3163,1.5331,1.7329,3.3003,2.1935c2.321,0.6359,5.0249,1.3817,5.0249,4.4964
		c0,2.2809-1.5327,4.4085-5.3653,4.4085c-2.5339,0-4.3865-0.9431-5.5997-2.3249L88.6637,236.7645z"/>
	<path d="M104.1676,225.8859h2.129v14.6292h-2.129V225.8859z"/>
	<path d="M114.8787,229.4606v11.0544h-2.129v-14.6292h2.193l7.7293,10.7907v-10.7907h2.129v14.6292h-2.0655L114.8787,229.4606z"/>
	<path d="M134.7052,227.8156h-4.4075v-1.9297h10.9226v1.9297h-4.386v12.6994h-2.129V227.8156z"/>
	<path d="M154.2112,237.4883h-6.792l-1.1497,3.0267h-2.4274l5.6422-14.6292h2.6619l5.6422,14.6292h-2.4274L154.2112,237.4883z
		 M148.0366,235.5361h5.5573l-2.7894-7.4133L148.0366,235.5361z"/>
	<path d="M162.7737,225.8859h2.129v14.6292h-2.129V225.8859z"/>
	<path d="M173.4848,229.4606v11.0544h-2.129v-14.6292h2.193l7.7293,10.7907v-10.7907h2.129v14.6292h-2.0655L173.4848,229.4606z"/>
	<path d="M189.8405,225.8859h9.5389v1.9297h-7.4098v4.2771h7.2609v1.9302h-7.2609v4.5619h7.4098v1.9302h-9.5389V225.8859z"/>
	<path d="M210.1139,234.8782h-2.6619v5.6369h-2.129v-14.6292h5.9832c2.7039,0,4.5565,1.7984,4.5565,4.4959
		c0,2.6321-1.7246,4.0358-3.5347,4.2771l3.6412,5.8562h-2.4699L210.1139,234.8782z M211.0292,227.8156h-3.5772v5.1323h3.5772
		c1.5332,0,2.6404-1.0306,2.6404-2.5662C213.6696,228.8467,212.5624,227.8156,211.0292,227.8156z"/>
</g>
</svg>
